<svg width="20" height="20" viewBox="0 0 20 20" fill="none" xmlns="http://www.w3.org/2000/svg">
<path d="M15.1562 1.0625H4.84375C2.40542 1.0625 1.0625 2.40542 1.0625 4.84375V15.1562C1.0625 17.5946 2.40542 18.9375 4.84375 18.9375H15.1562C17.5946 18.9375 18.9375 17.5946 18.9375 15.1562V4.84375C18.9375 2.40542 17.5946 1.0625 15.1562 1.0625ZM17.5625 15.1562C17.5625 16.8429 16.8429 17.5625 15.1562 17.5625H4.84375C3.15708 17.5625 2.4375 16.8429 2.4375 15.1562V4.84375C2.4375 3.15708 3.15708 2.4375 4.84375 2.4375H15.1562C16.8429 2.4375 17.5625 3.15708 17.5625 4.84375V15.1562ZM10 6.5625C8.86333 6.5625 7.9375 7.48742 7.9375 8.625C7.9375 9.51967 8.51408 10.276 9.3125 10.5611V13.6667C9.3125 14.0462 9.6205 14.3542 10 14.3542C10.3795 14.3542 10.6875 14.0462 10.6875 13.6667V10.5611C11.4859 10.276 12.0625 9.52058 12.0625 8.625C12.0625 7.48742 11.1367 6.5625 10 6.5625ZM10 9.3125C9.62142 9.3125 9.3125 9.0045 9.3125 8.625C9.3125 8.2455 9.62142 7.9375 10 7.9375C10.3786 7.9375 10.6875 8.2455 10.6875 8.625C10.6875 9.0045 10.3786 9.3125 10 9.3125Z" fill="#171717"/>
</svg>
